<?xml version="1.0" encoding="UTF-8" standalone="no"?>
<!DOCTYPE svg PUBLIC "-//W3C//DTD SVG 1.1//EN"
 "http://www.w3.org/Graphics/SVG/1.1/DTD/svg11.dtd">
<!-- Generated by graphviz version 2.40.1 (20161225.0304)
 -->
<!-- Title: %3 Pages: 1 -->
<svg width="460pt" height="188pt"
 viewBox="0.00 0.00 460.25 188.00" xmlns="http://www.w3.org/2000/svg" xmlns:xlink="http://www.w3.org/1999/xlink">
<g id="graph0" class="graph" transform="scale(1 1) rotate(0) translate(4 184)">
<title>%3</title>
<polygon fill="#ffffff" stroke="transparent" points="-4,4 -4,-184 456.2489,-184 456.2489,4 -4,4"/>
<!-- Symbol(x)_(0, 0) -->
<g id="node1" class="node">
<title>Symbol(x)_(0, 0)</title>
<ellipse fill="none" stroke="#000000" cx="51.1244" cy="-18" rx="51.2492" ry="18"/>
<text text-anchor="middle" x="51.1244" y="-13.8" font-family="Times,serif" font-size="14.00" fill="#000000">Symbol(&#39;x&#39;)</text>
</g>
<!-- Integer(2)_(1, 1) -->
<g id="node2" class="node">
<title>Integer(2)_(1, 1)</title>
<ellipse fill="none" stroke="#000000" cx="286.1244" cy="-18" rx="45.4182" ry="18"/>
<text text-anchor="middle" x="286.1244" y="-13.8" font-family="Times,serif" font-size="14.00" fill="#000000">Integer(2)</text>
</g>
<!-- Symbol(y)_(0, 1) -->
<g id="node3" class="node">
<title>Symbol(y)_(0, 1)</title>
<ellipse fill="none" stroke="#000000" cx="171.1244" cy="-18" rx="51.2492" ry="18"/>
<text text-anchor="middle" x="171.1244" y="-13.8" font-family="Times,serif" font-size="14.00" fill="#000000">Symbol(&#39;y&#39;)</text>
</g>
<!-- Symbol(x)_(1, 0) -->
<g id="node4" class="node">
<title>Symbol(x)_(1, 0)</title>
<ellipse fill="none" stroke="#000000" cx="401.1244" cy="-18" rx="51.2492" ry="18"/>
<text text-anchor="middle" x="401.1244" y="-13.8" font-family="Times,serif" font-size="14.00" fill="#000000">Symbol(&#39;x&#39;)</text>
</g>
<!-- Mul(Symbol(x), Symbol(y))_(0,) -->
<g id="node5" class="node">
<title>Mul(Symbol(x), Symbol(y))_(0,)</title>
<ellipse fill="none" stroke="#000000" cx="171.1244" cy="-90" rx="27" ry="18"/>
<text text-anchor="middle" x="171.1244" y="-85.8" font-family="Times,serif" font-size="14.00" fill="#000000">Mul</text>
</g>
<!-- Mul(Symbol(x), Symbol(y))_(0,)&#45;&gt;Symbol(x)_(0, 0) -->
<g id="edge1" class="edge">
<title>Mul(Symbol(x), Symbol(y))_(0,)&#45;&gt;Symbol(x)_(0, 0)</title>
<path fill="none" stroke="#000000" d="M151.0391,-77.9488C133.2914,-67.3002 107.0164,-51.5352 85.8649,-38.8443"/>
<polygon fill="#000000" stroke="#000000" points="87.5291,-35.7612 77.1534,-33.6174 83.9276,-41.7636 87.5291,-35.7612"/>
</g>
<!-- Mul(Symbol(x), Symbol(y))_(0,)&#45;&gt;Symbol(y)_(0, 1) -->
<g id="edge2" class="edge">
<title>Mul(Symbol(x), Symbol(y))_(0,)&#45;&gt;Symbol(y)_(0, 1)</title>
<path fill="none" stroke="#000000" d="M171.1244,-71.8314C171.1244,-64.131 171.1244,-54.9743 171.1244,-46.4166"/>
<polygon fill="#000000" stroke="#000000" points="174.6245,-46.4132 171.1244,-36.4133 167.6245,-46.4133 174.6245,-46.4132"/>
</g>
<!-- Pow(Symbol(x), Integer(2))_(1,) -->
<g id="node6" class="node">
<title>Pow(Symbol(x), Integer(2))_(1,)</title>
<ellipse fill="none" stroke="#000000" cx="286.1244" cy="-90" rx="27" ry="18"/>
<text text-anchor="middle" x="286.1244" y="-85.8" font-family="Times,serif" font-size="14.00" fill="#000000">Pow</text>
</g>
<!-- Pow(Symbol(x), Integer(2))_(1,)&#45;&gt;Integer(2)_(1, 1) -->
<g id="edge4" class="edge">
<title>Pow(Symbol(x), Integer(2))_(1,)&#45;&gt;Integer(2)_(1, 1)</title>
<path fill="none" stroke="#000000" d="M286.1244,-71.8314C286.1244,-64.131 286.1244,-54.9743 286.1244,-46.4166"/>
<polygon fill="#000000" stroke="#000000" points="289.6245,-46.4132 286.1244,-36.4133 282.6245,-46.4133 289.6245,-46.4132"/>
</g>
<!-- Pow(Symbol(x), Integer(2))_(1,)&#45;&gt;Symbol(x)_(1, 0) -->
<g id="edge3" class="edge">
<title>Pow(Symbol(x), Integer(2))_(1,)&#45;&gt;Symbol(x)_(1, 0)</title>
<path fill="none" stroke="#000000" d="M305.8936,-77.6228C322.7878,-67.0456 347.4621,-51.5973 367.4615,-39.0759"/>
<polygon fill="#000000" stroke="#000000" points="369.3742,-42.0079 375.9927,-33.7347 365.6595,-36.0748 369.3742,-42.0079"/>
</g>
<!-- Add(Mul(Symbol(x), Symbol(y)), Pow(Symbol(x), Integer(2)))_() -->
<g id="node7" class="node">
<title>Add(Mul(Symbol(x), Symbol(y)), Pow(Symbol(x), Integer(2)))_()</title>
<ellipse fill="none" stroke="#000000" cx="228.1244" cy="-162" rx="27" ry="18"/>
<text text-anchor="middle" x="228.1244" y="-157.8" font-family="Times,serif" font-size="14.00" fill="#000000">Add</text>
</g>
<!-- Add(Mul(Symbol(x), Symbol(y)), Pow(Symbol(x), Integer(2)))_()&#45;&gt;Mul(Symbol(x), Symbol(y))_(0,) -->
<g id="edge5" class="edge">
<title>Add(Mul(Symbol(x), Symbol(y)), Pow(Symbol(x), Integer(2)))_()&#45;&gt;Mul(Symbol(x), Symbol(y))_(0,)</title>
<path fill="none" stroke="#000000" d="M215.4743,-146.0209C208.0209,-136.6061 198.4469,-124.5126 190.1031,-113.973"/>
<polygon fill="#000000" stroke="#000000" points="192.6905,-111.6025 183.7392,-105.9345 187.2021,-115.9474 192.6905,-111.6025"/>
</g>
<!-- Add(Mul(Symbol(x), Symbol(y)), Pow(Symbol(x), Integer(2)))_()&#45;&gt;Pow(Symbol(x), Integer(2))_(1,) -->
<g id="edge6" class="edge">
<title>Add(Mul(Symbol(x), Symbol(y)), Pow(Symbol(x), Integer(2)))_()&#45;&gt;Pow(Symbol(x), Integer(2))_(1,)</title>
<path fill="none" stroke="#000000" d="M240.9965,-146.0209C248.5807,-136.6061 258.3226,-124.5126 266.8129,-113.973"/>
<polygon fill="#000000" stroke="#000000" points="269.7407,-115.9177 273.2883,-105.9345 264.2894,-111.5264 269.7407,-115.9177"/>
</g>
</g>
</svg>
