<?xml version="1.0" encoding="UTF-8" standalone="no"?>
<!DOCTYPE svg PUBLIC "-//W3C//DTD SVG 1.1//EN"
 "http://www.w3.org/Graphics/SVG/1.1/DTD/svg11.dtd">
<!-- Generated by graphviz version 2.40.1 (20161225.0304)
 -->
<!-- Title: %3 Pages: 1 -->
<svg width="263pt" height="188pt"
 viewBox="0.00 0.00 262.53 188.00" xmlns="http://www.w3.org/2000/svg" xmlns:xlink="http://www.w3.org/1999/xlink">
<g id="graph0" class="graph" transform="scale(1 1) rotate(0) translate(4 184)">
<title>%3</title>
<polygon fill="#ffffff" stroke="transparent" points="-4,4 -4,-184 258.5285,-184 258.5285,4 -4,4"/>
<!-- Symbol(x)_(0,) -->
<g id="node1" class="node">
<title>Symbol(x)_(0,)</title>
<ellipse fill="none" stroke="#000000" cx="51.1244" cy="-90" rx="51.2492" ry="18"/>
<text text-anchor="middle" x="51.1244" y="-85.8" font-family="Times,serif" font-size="14.00" fill="#000000">Symbol(&#39;x&#39;)</text>
</g>
<!-- Symbol(y)_(1, 0) -->
<g id="node2" class="node">
<title>Symbol(y)_(1, 0)</title>
<ellipse fill="none" stroke="#000000" cx="88.1244" cy="-18" rx="51.2492" ry="18"/>
<text text-anchor="middle" x="88.1244" y="-13.8" font-family="Times,serif" font-size="14.00" fill="#000000">Symbol(&#39;y&#39;)</text>
</g>
<!-- NegativeOne()_(1, 1) -->
<g id="node3" class="node">
<title>NegativeOne()_(1, 1)</title>
<ellipse fill="none" stroke="#000000" cx="206.1244" cy="-18" rx="48.3083" ry="18"/>
<text text-anchor="middle" x="206.1244" y="-13.8" font-family="Times,serif" font-size="14.00" fill="#000000">Integer(&#45;1)</text>
</g>
<!-- Pow(Symbol(y), NegativeOne())_(1,) -->
<g id="node4" class="node">
<title>Pow(Symbol(y), NegativeOne())_(1,)</title>
<ellipse fill="none" stroke="#000000" cx="147.1244" cy="-90" rx="27" ry="18"/>
<text text-anchor="middle" x="147.1244" y="-85.8" font-family="Times,serif" font-size="14.00" fill="#000000">Pow</text>
</g>
<!-- Pow(Symbol(y), NegativeOne())_(1,)&#45;&gt;Symbol(y)_(1, 0) -->
<g id="edge1" class="edge">
<title>Pow(Symbol(y), NegativeOne())_(1,)&#45;&gt;Symbol(y)_(1, 0)</title>
<path fill="none" stroke="#000000" d="M134.0304,-74.0209C126.637,-64.9983 117.2276,-53.5157 108.8549,-43.2982"/>
<polygon fill="#000000" stroke="#000000" points="111.4663,-40.9628 102.4208,-35.4464 106.0519,-45.3996 111.4663,-40.9628"/>
</g>
<!-- Pow(Symbol(y), NegativeOne())_(1,)&#45;&gt;NegativeOne()_(1, 1) -->
<g id="edge2" class="edge">
<title>Pow(Symbol(y), NegativeOne())_(1,)&#45;&gt;NegativeOne()_(1, 1)</title>
<path fill="none" stroke="#000000" d="M160.2185,-74.0209C167.6119,-64.9983 177.0213,-53.5157 185.3939,-43.2982"/>
<polygon fill="#000000" stroke="#000000" points="188.197,-45.3996 191.8281,-35.4464 182.7826,-40.9628 188.197,-45.3996"/>
</g>
<!-- Mul(Symbol(x), Pow(Symbol(y), NegativeOne()))_() -->
<g id="node5" class="node">
<title>Mul(Symbol(x), Pow(Symbol(y), NegativeOne()))_()</title>
<ellipse fill="none" stroke="#000000" cx="99.1244" cy="-162" rx="27" ry="18"/>
<text text-anchor="middle" x="99.1244" y="-157.8" font-family="Times,serif" font-size="14.00" fill="#000000">Mul</text>
</g>
<!-- Mul(Symbol(x), Pow(Symbol(y), NegativeOne()))_()&#45;&gt;Symbol(x)_(0,) -->
<g id="edge3" class="edge">
<title>Mul(Symbol(x), Pow(Symbol(y), NegativeOne()))_()&#45;&gt;Symbol(x)_(0,)</title>
<path fill="none" stroke="#000000" d="M87.9916,-145.3008C82.2242,-136.6496 75.0493,-125.8873 68.566,-116.1623"/>
<polygon fill="#000000" stroke="#000000" points="71.3258,-113.9922 62.8666,-107.6132 65.5014,-117.8752 71.3258,-113.9922"/>
</g>
<!-- Mul(Symbol(x), Pow(Symbol(y), NegativeOne()))_()&#45;&gt;Pow(Symbol(y), NegativeOne())_(1,) -->
<g id="edge4" class="edge">
<title>Mul(Symbol(x), Pow(Symbol(y), NegativeOne()))_()&#45;&gt;Pow(Symbol(y), NegativeOne())_(1,)</title>
<path fill="none" stroke="#000000" d="M110.2573,-145.3008C116.2549,-136.3043 123.7746,-125.0247 130.4558,-115.0029"/>
<polygon fill="#000000" stroke="#000000" points="133.4171,-116.8706 136.052,-106.6087 127.5928,-112.9877 133.4171,-116.8706"/>
</g>
</g>
</svg>
