<?xml version="1.0" encoding="UTF-8" standalone="no"?>
<!DOCTYPE svg PUBLIC "-//W3C//DTD SVG 1.1//EN"
 "http://www.w3.org/Graphics/SVG/1.1/DTD/svg11.dtd">
<!-- Generated by graphviz version 2.40.1 (20161225.0304)
 -->
<!-- Title: %3 Pages: 1 -->
<svg width="709pt" height="332pt"
 viewBox="0.00 0.00 708.58 332.00" xmlns="http://www.w3.org/2000/svg" xmlns:xlink="http://www.w3.org/1999/xlink">
<g id="graph0" class="graph" transform="scale(1 1) rotate(0) translate(4 328)">
<title>%3</title>
<polygon fill="#ffffff" stroke="transparent" points="-4,4 -4,-328 704.5835,-328 704.5835,4 -4,4"/>
<!-- Half()_(0, 0) -->
<g id="node1" class="node">
<title>Half()_(0, 0)</title>
<ellipse fill="none" stroke="#000000" cx="295.1244" cy="-162" rx="59.4512" ry="18"/>
<text text-anchor="middle" x="295.1244" y="-157.8" font-family="Times,serif" font-size="14.00" fill="#000000">Rational(1, 2)</text>
</g>
<!-- Symbol(y)_(2, 0) -->
<g id="node2" class="node">
<title>Symbol(y)_(2, 0)</title>
<ellipse fill="none" stroke="#000000" cx="51.1244" cy="-162" rx="51.2492" ry="18"/>
<text text-anchor="middle" x="51.1244" y="-157.8" font-family="Times,serif" font-size="14.00" fill="#000000">Symbol(&#39;y&#39;)</text>
</g>
<!-- Symbol(x)_(1, 1, 0) -->
<g id="node3" class="node">
<title>Symbol(x)_(1, 1, 0)</title>
<ellipse fill="none" stroke="#000000" cx="540.1244" cy="-90" rx="51.2492" ry="18"/>
<text text-anchor="middle" x="540.1244" y="-85.8" font-family="Times,serif" font-size="14.00" fill="#000000">Symbol(&#39;x&#39;)</text>
</g>
<!-- Integer(2)_(1, 1, 1) -->
<g id="node4" class="node">
<title>Integer(2)_(1, 1, 1)</title>
<ellipse fill="none" stroke="#000000" cx="655.1244" cy="-90" rx="45.4182" ry="18"/>
<text text-anchor="middle" x="655.1244" y="-85.8" font-family="Times,serif" font-size="14.00" fill="#000000">Integer(2)</text>
</g>
<!-- NegativeOne()_(2, 1) -->
<g id="node5" class="node">
<title>NegativeOne()_(2, 1)</title>
<ellipse fill="none" stroke="#000000" cx="169.1244" cy="-162" rx="48.3083" ry="18"/>
<text text-anchor="middle" x="169.1244" y="-157.8" font-family="Times,serif" font-size="14.00" fill="#000000">Integer(&#45;1)</text>
</g>
<!-- NegativeOne()_(1, 0) -->
<g id="node6" class="node">
<title>NegativeOne()_(1, 0)</title>
<ellipse fill="none" stroke="#000000" cx="492.1244" cy="-162" rx="48.3083" ry="18"/>
<text text-anchor="middle" x="492.1244" y="-157.8" font-family="Times,serif" font-size="14.00" fill="#000000">Integer(&#45;1)</text>
</g>
<!-- Symbol(y)_(0, 1, 0, 1) -->
<g id="node7" class="node">
<title>Symbol(y)_(0, 1, 0, 1)</title>
<ellipse fill="none" stroke="#000000" cx="339.1244" cy="-18" rx="51.2492" ry="18"/>
<text text-anchor="middle" x="339.1244" y="-13.8" font-family="Times,serif" font-size="14.00" fill="#000000">Symbol(&#39;y&#39;)</text>
</g>
<!-- Symbol(x)_(0, 1, 0, 0) -->
<g id="node8" class="node">
<title>Symbol(x)_(0, 1, 0, 0)</title>
<ellipse fill="none" stroke="#000000" cx="459.1244" cy="-18" rx="51.2492" ry="18"/>
<text text-anchor="middle" x="459.1244" y="-13.8" font-family="Times,serif" font-size="14.00" fill="#000000">Symbol(&#39;x&#39;)</text>
</g>
<!-- Pow(Symbol(x), Integer(2))_(1, 1) -->
<g id="node9" class="node">
<title>Pow(Symbol(x), Integer(2))_(1, 1)</title>
<ellipse fill="none" stroke="#000000" cx="585.1244" cy="-162" rx="27" ry="18"/>
<text text-anchor="middle" x="585.1244" y="-157.8" font-family="Times,serif" font-size="14.00" fill="#000000">Pow</text>
</g>
<!-- Pow(Symbol(x), Integer(2))_(1, 1)&#45;&gt;Symbol(x)_(1, 1, 0) -->
<g id="edge2" class="edge">
<title>Pow(Symbol(x), Integer(2))_(1, 1)&#45;&gt;Symbol(x)_(1, 1, 0)</title>
<path fill="none" stroke="#000000" d="M574.6874,-145.3008C569.2805,-136.6496 562.554,-125.8873 556.4759,-116.1623"/>
<polygon fill="#000000" stroke="#000000" points="559.4007,-114.2382 551.1327,-107.6132 553.4647,-117.9482 559.4007,-114.2382"/>
</g>
<!-- Pow(Symbol(x), Integer(2))_(1, 1)&#45;&gt;Integer(2)_(1, 1, 1) -->
<g id="edge3" class="edge">
<title>Pow(Symbol(x), Integer(2))_(1, 1)&#45;&gt;Integer(2)_(1, 1, 1)</title>
<path fill="none" stroke="#000000" d="M599.9696,-146.7307C609.0766,-137.3635 620.9452,-125.1558 631.3386,-114.4654"/>
<polygon fill="#000000" stroke="#000000" points="634.124,-116.6215 638.5853,-107.0117 629.105,-111.7419 634.124,-116.6215"/>
</g>
<!-- Pow(Symbol(y), NegativeOne())_(2,) -->
<g id="node10" class="node">
<title>Pow(Symbol(y), NegativeOne())_(2,)</title>
<ellipse fill="none" stroke="#000000" cx="169.1244" cy="-234" rx="27" ry="18"/>
<text text-anchor="middle" x="169.1244" y="-229.8" font-family="Times,serif" font-size="14.00" fill="#000000">Pow</text>
</g>
<!-- Pow(Symbol(y), NegativeOne())_(2,)&#45;&gt;Symbol(y)_(2, 0) -->
<g id="edge1" class="edge">
<title>Pow(Symbol(y), NegativeOne())_(2,)&#45;&gt;Symbol(y)_(2, 0)</title>
<path fill="none" stroke="#000000" d="M149.1073,-221.7862C131.8095,-211.2316 106.4197,-195.7395 85.8201,-183.1703"/>
<polygon fill="#000000" stroke="#000000" points="87.3909,-180.0286 77.0314,-177.8077 83.7448,-186.0041 87.3909,-180.0286"/>
</g>
<!-- Pow(Symbol(y), NegativeOne())_(2,)&#45;&gt;NegativeOne()_(2, 1) -->
<g id="edge4" class="edge">
<title>Pow(Symbol(y), NegativeOne())_(2,)&#45;&gt;NegativeOne()_(2, 1)</title>
<path fill="none" stroke="#000000" d="M169.1244,-215.8314C169.1244,-208.131 169.1244,-198.9743 169.1244,-190.4166"/>
<polygon fill="#000000" stroke="#000000" points="172.6245,-190.4132 169.1244,-180.4133 165.6245,-190.4133 172.6245,-190.4132"/>
</g>
<!-- Mul(Symbol(x), Symbol(y))_(0, 1, 0) -->
<g id="node11" class="node">
<title>Mul(Symbol(x), Symbol(y))_(0, 1, 0)</title>
<ellipse fill="none" stroke="#000000" cx="399.1244" cy="-90" rx="27" ry="18"/>
<text text-anchor="middle" x="399.1244" y="-85.8" font-family="Times,serif" font-size="14.00" fill="#000000">Mul</text>
</g>
<!-- Mul(Symbol(x), Symbol(y))_(0, 1, 0)&#45;&gt;Symbol(y)_(0, 1, 0, 1) -->
<g id="edge6" class="edge">
<title>Mul(Symbol(x), Symbol(y))_(0, 1, 0)&#45;&gt;Symbol(y)_(0, 1, 0, 1)</title>
<path fill="none" stroke="#000000" d="M385.8085,-74.0209C378.2897,-64.9983 368.7209,-53.5157 360.2063,-43.2982"/>
<polygon fill="#000000" stroke="#000000" points="362.7538,-40.888 353.6631,-35.4464 357.3762,-45.3693 362.7538,-40.888"/>
</g>
<!-- Mul(Symbol(x), Symbol(y))_(0, 1, 0)&#45;&gt;Symbol(x)_(0, 1, 0, 0) -->
<g id="edge5" class="edge">
<title>Mul(Symbol(x), Symbol(y))_(0, 1, 0)&#45;&gt;Symbol(x)_(0, 1, 0, 0)</title>
<path fill="none" stroke="#000000" d="M412.4404,-74.0209C419.9591,-64.9983 429.528,-53.5157 438.0426,-43.2982"/>
<polygon fill="#000000" stroke="#000000" points="440.8727,-45.3693 444.5858,-35.4464 435.4951,-40.888 440.8727,-45.3693"/>
</g>
<!-- sin(Mul(Symbol(x), Symbol(y)))_(0, 1) -->
<g id="node12" class="node">
<title>sin(Mul(Symbol(x), Symbol(y)))_(0, 1)</title>
<ellipse fill="none" stroke="#000000" cx="399.1244" cy="-162" rx="27" ry="18"/>
<text text-anchor="middle" x="399.1244" y="-157.8" font-family="Times,serif" font-size="14.00" fill="#000000">sin</text>
</g>
<!-- sin(Mul(Symbol(x), Symbol(y)))_(0, 1)&#45;&gt;Mul(Symbol(x), Symbol(y))_(0, 1, 0) -->
<g id="edge9" class="edge">
<title>sin(Mul(Symbol(x), Symbol(y)))_(0, 1)&#45;&gt;Mul(Symbol(x), Symbol(y))_(0, 1, 0)</title>
<path fill="none" stroke="#000000" d="M399.1244,-143.8314C399.1244,-136.131 399.1244,-126.9743 399.1244,-118.4166"/>
<polygon fill="#000000" stroke="#000000" points="402.6245,-118.4132 399.1244,-108.4133 395.6245,-118.4133 402.6245,-118.4132"/>
</g>
<!-- Mul(Half(), sin(Mul(Symbol(x), Symbol(y))))_(0,) -->
<g id="node13" class="node">
<title>Mul(Half(), sin(Mul(Symbol(x), Symbol(y))))_(0,)</title>
<ellipse fill="none" stroke="#000000" cx="347.1244" cy="-234" rx="27" ry="18"/>
<text text-anchor="middle" x="347.1244" y="-229.8" font-family="Times,serif" font-size="14.00" fill="#000000">Mul</text>
</g>
<!-- Mul(Half(), sin(Mul(Symbol(x), Symbol(y))))_(0,)&#45;&gt;Half()_(0, 0) -->
<g id="edge7" class="edge">
<title>Mul(Half(), sin(Mul(Symbol(x), Symbol(y))))_(0,)&#45;&gt;Half()_(0, 0)</title>
<path fill="none" stroke="#000000" d="M335.3248,-217.6621C329.0209,-208.9336 321.1104,-197.9805 313.9778,-188.1047"/>
<polygon fill="#000000" stroke="#000000" points="316.6624,-185.8438 307.97,-179.7862 310.9876,-189.9422 316.6624,-185.8438"/>
</g>
<!-- Mul(Half(), sin(Mul(Symbol(x), Symbol(y))))_(0,)&#45;&gt;sin(Mul(Symbol(x), Symbol(y)))_(0, 1) -->
<g id="edge11" class="edge">
<title>Mul(Half(), sin(Mul(Symbol(x), Symbol(y))))_(0,)&#45;&gt;sin(Mul(Symbol(x), Symbol(y)))_(0, 1)</title>
<path fill="none" stroke="#000000" d="M358.924,-217.6621C365.5726,-208.4564 374.0081,-196.7764 381.4334,-186.4953"/>
<polygon fill="#000000" stroke="#000000" points="384.354,-188.4293 387.3715,-178.2733 378.6792,-184.3308 384.354,-188.4293"/>
</g>
<!-- Mul(NegativeOne(), Pow(Symbol(x), Integer(2)))_(1,) -->
<g id="node14" class="node">
<title>Mul(NegativeOne(), Pow(Symbol(x), Integer(2)))_(1,)</title>
<ellipse fill="none" stroke="#000000" cx="492.1244" cy="-234" rx="27" ry="18"/>
<text text-anchor="middle" x="492.1244" y="-229.8" font-family="Times,serif" font-size="14.00" fill="#000000">Mul</text>
</g>
<!-- Mul(NegativeOne(), Pow(Symbol(x), Integer(2)))_(1,)&#45;&gt;NegativeOne()_(1, 0) -->
<g id="edge8" class="edge">
<title>Mul(NegativeOne(), Pow(Symbol(x), Integer(2)))_(1,)&#45;&gt;NegativeOne()_(1, 0)</title>
<path fill="none" stroke="#000000" d="M492.1244,-215.8314C492.1244,-208.131 492.1244,-198.9743 492.1244,-190.4166"/>
<polygon fill="#000000" stroke="#000000" points="495.6245,-190.4132 492.1244,-180.4133 488.6245,-190.4133 495.6245,-190.4132"/>
</g>
<!-- Mul(NegativeOne(), Pow(Symbol(x), Integer(2)))_(1,)&#45;&gt;Pow(Symbol(x), Integer(2))_(1, 1) -->
<g id="edge10" class="edge">
<title>Mul(NegativeOne(), Pow(Symbol(x), Integer(2)))_(1,)&#45;&gt;Pow(Symbol(x), Integer(2))_(1, 1)</title>
<path fill="none" stroke="#000000" d="M510.0558,-220.1177C523.9508,-209.3602 543.4025,-194.3009 559.0235,-182.2072"/>
<polygon fill="#000000" stroke="#000000" points="561.4835,-184.729 567.2482,-175.8397 557.1983,-179.1939 561.4835,-184.729"/>
</g>
<!-- Add(Mul(Half(), sin(Mul(Symbol(x), Symbol(y)))), Mul(NegativeOne(), Pow(Symbol(x), Integer(2))), Pow(Symbol(y), NegativeOne()))_() -->
<g id="node15" class="node">
<title>Add(Mul(Half(), sin(Mul(Symbol(x), Symbol(y)))), Mul(NegativeOne(), Pow(Symbol(x), Integer(2))), Pow(Symbol(y), NegativeOne()))_()</title>
<ellipse fill="none" stroke="#000000" cx="347.1244" cy="-306" rx="27" ry="18"/>
<text text-anchor="middle" x="347.1244" y="-301.8" font-family="Times,serif" font-size="14.00" fill="#000000">Add</text>
</g>
<!-- Add(Mul(Half(), sin(Mul(Symbol(x), Symbol(y)))), Mul(NegativeOne(), Pow(Symbol(x), Integer(2))), Pow(Symbol(y), NegativeOne()))_()&#45;&gt;Pow(Symbol(y), NegativeOne())_(2,) -->
<g id="edge12" class="edge">
<title>Add(Mul(Half(), sin(Mul(Symbol(x), Symbol(y)))), Mul(NegativeOne(), Pow(Symbol(x), Integer(2))), Pow(Symbol(y), NegativeOne()))_()&#45;&gt;Pow(Symbol(y), NegativeOne())_(2,)</title>
<path fill="none" stroke="#000000" d="M323.854,-296.5873C292.6721,-283.9743 237.1688,-261.5236 201.8042,-247.2188"/>
<polygon fill="#000000" stroke="#000000" points="202.9833,-243.9203 192.4005,-243.4151 200.3584,-250.4095 202.9833,-243.9203"/>
</g>
<!-- Add(Mul(Half(), sin(Mul(Symbol(x), Symbol(y)))), Mul(NegativeOne(), Pow(Symbol(x), Integer(2))), Pow(Symbol(y), NegativeOne()))_()&#45;&gt;Mul(Half(), sin(Mul(Symbol(x), Symbol(y))))_(0,) -->
<g id="edge13" class="edge">
<title>Add(Mul(Half(), sin(Mul(Symbol(x), Symbol(y)))), Mul(NegativeOne(), Pow(Symbol(x), Integer(2))), Pow(Symbol(y), NegativeOne()))_()&#45;&gt;Mul(Half(), sin(Mul(Symbol(x), Symbol(y))))_(0,)</title>
<path fill="none" stroke="#000000" d="M347.1244,-287.8314C347.1244,-280.131 347.1244,-270.9743 347.1244,-262.4166"/>
<polygon fill="#000000" stroke="#000000" points="350.6245,-262.4132 347.1244,-252.4133 343.6245,-262.4133 350.6245,-262.4132"/>
</g>
<!-- Add(Mul(Half(), sin(Mul(Symbol(x), Symbol(y)))), Mul(NegativeOne(), Pow(Symbol(x), Integer(2))), Pow(Symbol(y), NegativeOne()))_()&#45;&gt;Mul(NegativeOne(), Pow(Symbol(x), Integer(2)))_(1,) -->
<g id="edge14" class="edge">
<title>Add(Mul(Half(), sin(Mul(Symbol(x), Symbol(y)))), Mul(NegativeOne(), Pow(Symbol(x), Integer(2))), Pow(Symbol(y), NegativeOne()))_()&#45;&gt;Mul(NegativeOne(), Pow(Symbol(x), Integer(2)))_(1,)</title>
<path fill="none" stroke="#000000" d="M368.8324,-295.2209C393.2848,-283.079 433.2284,-263.2449 460.9985,-249.4556"/>
<polygon fill="#000000" stroke="#000000" points="462.8681,-252.4351 470.2681,-244.8528 459.7549,-246.1655 462.8681,-252.4351"/>
</g>
</g>
</svg>
